<mxfile host="app.diagrams.net" modified="2023-07-26T15:05:17.077Z" agent="Mozilla/5.0 (Windows NT 10.0; Win64; x64) AppleWebKit/537.36 (KHTML, like Gecko) Chrome/114.0.0.0 Safari/537.36" version="21.6.5" etag="oNOxPPLPoku0uicKnlnn" type="github">
  <diagram name="PÃ¡gina-1" id="3zqSURGpTR9km8DEBcdW">
    <mxGraphModel>
      <root>
        <mxCell id="0" />
        <mxCell id="1" parent="0" />
      </root>
    </mxGraphModel>
  </diagram>
</mxfile>
